<?xml version="1.0" standalone="no"?>
<!DOCTYPE svg PUBLIC "-//W3C//DTD SVG 20010904//EN"
 "http://www.w3.org/TR/2001/REC-SVG-20010904/DTD/svg10.dtd">
<svg version="1.0" xmlns="http://www.w3.org/2000/svg"
 width="822.000000pt" height="864.000000pt" viewBox="0 0 822.000000 864.000000"
 preserveAspectRatio="xMidYMid meet">
<metadata>
Created by potrace 1.10, written by Peter Selinger 2001-2011
</metadata>
<g transform="translate(0.000000,864.000000) scale(0.100000,-0.100000)"
fill="#000000" stroke="none">
<path d="M3990 8631 c0 -5 -40 -69 -89 -142 -48 -74 -105 -165 -127 -204 -48
-87 -154 -303 -154 -314 0 -4 -12 -30 -26 -56 -14 -27 -34 -75 -46 -108 -11
-32 -27 -71 -34 -86 -8 -14 -14 -30 -14 -36 0 -5 -13 -53 -30 -105 -40 -127
-80 -291 -90 -365 -5 -33 -15 -107 -23 -165 -43 -299 -48 -485 -18 -670 26
-161 52 -234 107 -299 21 -26 33 -31 69 -31 l43 0 6 68 c3 37 11 137 16 222 6
85 15 184 20 220 6 36 13 88 16 115 3 28 17 106 31 175 14 69 29 145 34 170 4
25 18 79 29 120 11 41 25 91 29 110 10 37 79 247 131 395 18 50 50 128 71 173
22 46 39 88 39 93 0 5 13 9 28 9 24 0 31 -7 46 -42 10 -24 31 -70 46 -103 29
-65 120 -316 120 -334 0 -6 6 -25 14 -43 17 -41 39 -117 90 -308 8 -30 24
-104 36 -165 12 -60 26 -124 31 -141 5 -17 9 -45 9 -62 0 -18 7 -74 15 -125 8
-50 21 -189 28 -308 8 -119 17 -221 21 -227 4 -7 24 -12 45 -12 118 0 199 271
188 632 -10 332 -69 664 -169 958 -75 220 -80 232 -105 279 -13 24 -23 48 -23
52 0 10 -112 238 -150 304 -63 114 -182 296 -205 315 -8 7 -15 21 -15 31 0 12
-7 19 -20 19 -11 0 -20 -4 -20 -9z"/>
<path d="M2124 6441 c-58 -25 -42 -66 43 -115 38 -21 112 -69 166 -105 55 -36
106 -70 116 -76 26 -16 252 -185 292 -219 19 -17 66 -56 104 -86 37 -30 73
-60 79 -66 6 -5 49 -43 96 -84 121 -106 181 -171 178 -194 -2 -13 -21 -26 -63
-41 -62 -22 -171 -80 -181 -96 -13 -22 -44 -5 -104 57 -59 60 -189 180 -266
244 -102 86 -374 281 -424 303 -8 4 -28 16 -45 26 -81 52 -258 140 -385 191
-30 12 -66 27 -80 32 -82 34 -273 94 -348 109 -24 5 -47 11 -51 13 -9 6 -174
38 -301 59 -133 22 -436 51 -450 42 -38 -24 63 -431 182 -725 66 -167 168
-373 267 -540 57 -96 167 -266 198 -305 13 -16 27 -35 31 -40 79 -110 361
-405 462 -483 25 -20 64 -53 87 -75 35 -34 87 -73 157 -120 10 -6 37 -26 60
-43 56 -41 276 -171 356 -211 179 -88 313 -140 469 -184 99 -27 131 -32 241
-33 109 -1 130 2 155 18 39 25 54 46 55 72 0 26 -31 41 -214 106 -32 11 -70
27 -85 34 -14 8 -30 14 -34 14 -4 0 -63 26 -130 58 -67 33 -129 62 -137 66 -8
3 -29 15 -46 25 -17 10 -51 30 -75 43 -93 50 -325 205 -394 262 -27 23 -61 49
-75 58 -65 42 -384 359 -454 453 -21 28 -42 52 -45 55 -8 6 -120 156 -136 182
-5 9 -32 49 -60 90 -27 40 -52 78 -54 83 -3 8 -54 97 -101 175 -42 71 -176
370 -212 473 -24 71 -18 81 49 74 70 -7 266 -59 366 -97 28 -11 57 -20 64 -20
6 0 41 -13 76 -30 36 -16 68 -30 70 -30 9 0 207 -99 272 -136 33 -18 67 -37
75 -41 8 -4 43 -26 78 -50 35 -24 66 -43 68 -43 10 0 280 -209 344 -267 95
-84 273 -265 320 -324 35 -44 40 -57 40 -102 0 -82 48 -307 71 -331 5 -6 9
-17 9 -26 0 -19 84 -187 105 -211 8 -8 15 -19 15 -23 0 -7 101 -142 140 -186
164 -187 374 -356 585 -470 167 -91 262 -134 295 -134 33 0 176 65 270 122 19
12 42 25 50 29 40 18 214 133 286 189 121 94 189 159 273 261 105 128 121 149
156 207 114 190 166 348 184 557 5 69 9 80 46 125 78 96 372 379 424 408 9 5
18 12 21 16 17 22 314 231 360 253 8 4 42 23 75 41 89 50 265 136 279 136 6 0
20 6 31 14 20 13 248 90 355 120 30 8 82 22 115 31 78 22 131 18 128 -10 -1
-26 -61 -187 -73 -199 -6 -6 -10 -16 -10 -24 0 -7 -27 -70 -60 -139 -33 -69
-60 -127 -60 -129 0 -2 -18 -34 -41 -70 -22 -37 -45 -77 -50 -88 -29 -63 -253
-387 -281 -407 -4 -3 -26 -30 -48 -60 -42 -56 -263 -283 -345 -354 -26 -22
-71 -61 -100 -87 -30 -26 -67 -55 -82 -65 -15 -10 -34 -24 -42 -31 -24 -23
-221 -153 -325 -214 -92 -55 -395 -208 -411 -208 -4 0 -21 -7 -38 -15 -39 -18
-160 -63 -207 -77 -97 -28 -116 -66 -60 -118 63 -59 281 -52 475 16 23 8 47
14 54 14 21 0 305 123 396 171 187 98 389 230 500 326 44 38 87 74 96 79 39
22 350 331 414 411 38 49 72 90 75 93 3 3 14 19 26 35 11 17 41 59 65 95 25
36 80 124 123 195 42 72 81 137 86 145 10 16 135 270 150 305 75 170 143 366
183 520 38 147 46 184 53 247 5 56 4 69 -9 74 -9 3 -71 0 -139 -6 -68 -6 -163
-15 -213 -20 -49 -4 -110 -13 -135 -19 -44 -10 -119 -25 -213 -41 -26 -5 -62
-13 -80 -19 -17 -6 -59 -18 -92 -27 -108 -30 -258 -82 -335 -114 -41 -18 -88
-37 -105 -44 -72 -29 -298 -149 -326 -172 -8 -8 -19 -14 -23 -14 -17 0 -379
-258 -406 -290 -3 -3 -34 -30 -70 -60 -36 -30 -111 -100 -168 -155 -56 -55
-109 -101 -116 -103 -8 -2 -33 10 -57 26 -62 41 -117 68 -167 83 -77 22 -75
30 24 127 117 114 236 220 344 306 50 41 308 235 332 251 8 6 49 33 89 61 41
27 81 53 89 57 8 4 27 15 41 25 15 9 52 32 82 50 64 38 73 53 48 83 -31 39
-125 37 -279 -6 -92 -25 -387 -176 -507 -259 -33 -23 -67 -45 -75 -48 -61 -25
-434 -359 -529 -473 -90 -109 -131 -163 -131 -174 0 -5 -3 -11 -8 -13 -22 -9
-119 -198 -150 -293 -48 -146 -55 -180 -56 -277 -1 -95 0 -100 24 -118 46 -36
65 -27 99 45 17 36 31 68 31 71 0 12 77 122 114 162 146 157 361 178 436 42
23 -42 24 -54 24 -175 -1 -106 -5 -142 -23 -195 -32 -93 -86 -200 -151 -299
-62 -95 -243 -284 -267 -279 -9 2 -32 35 -53 73 -21 39 -56 91 -80 118 -37 42
-46 47 -85 47 -63 0 -71 -15 -52 -98 18 -75 36 -180 44 -259 l5 -52 -45 -28
c-76 -47 -110 -66 -155 -86 -42 -19 -43 -19 -85 -1 -42 18 -87 44 -159 92 -30
19 -38 31 -38 54 0 31 21 157 47 275 20 94 16 103 -45 103 -46 0 -53 -4 -90
-44 -22 -24 -59 -78 -82 -120 -23 -42 -47 -76 -54 -76 -11 0 -118 101 -192
181 -79 86 -176 258 -225 400 -30 88 -33 305 -5 359 39 75 84 100 175 100 94
0 160 -31 248 -117 51 -49 133 -159 133 -177 0 -3 14 -35 31 -71 34 -72 57
-82 96 -45 73 67 -4 427 -130 611 -14 21 -28 46 -32 58 -3 12 -11 21 -16 21
-5 0 -9 5 -9 11 0 6 -12 26 -27 44 -16 19 -57 70 -93 115 -62 77 -196 207
-340 331 -70 60 -197 159 -204 159 -2 0 -43 27 -92 60 -48 33 -91 60 -95 60
-5 0 -24 11 -43 24 -63 42 -239 124 -336 156 -100 32 -228 47 -266 31z"/>
<path d="M1504 3590 c-56 -4 -106 -10 -112 -14 -6 -3 -30 -10 -54 -15 -201
-40 -526 -176 -702 -292 -32 -22 -60 -39 -62 -39 -5 0 -157 -109 -199 -143
-76 -62 -161 -141 -267 -248 l-108 -109 0 -65 c0 -51 3 -65 15 -65 8 0 44 -13
78 -30 35 -16 70 -30 78 -30 8 0 19 -4 24 -9 6 -5 26 -14 45 -19 19 -6 67 -22
105 -35 39 -14 97 -33 130 -42 33 -10 80 -24 105 -31 44 -13 104 -26 260 -57
226 -45 654 -60 920 -32 139 15 188 23 362 60 112 24 120 15 56 -67 -88 -110
-227 -320 -273 -412 -20 -39 -40 -78 -45 -86 -26 -48 -70 -142 -70 -151 0 -5
-13 -39 -30 -74 -16 -35 -30 -67 -30 -71 0 -4 -13 -41 -29 -83 -30 -79 -76
-225 -86 -276 -4 -16 -12 -57 -20 -90 -57 -253 -57 -250 13 -241 126 17 413
101 546 160 32 14 62 26 67 26 10 0 126 51 174 77 17 8 48 25 70 36 22 11 54
31 72 44 17 12 35 23 39 23 3 0 24 15 46 33 195 162 277 273 281 380 4 91 -35
92 -168 2 -55 -38 -116 -77 -135 -88 -52 -29 -137 -75 -189 -102 -63 -33 -232
-105 -245 -105 -6 0 -22 -6 -36 -13 -88 -46 -128 -37 -109 26 11 33 13 37 48
119 12 26 21 50 21 54 0 15 139 284 181 349 14 22 28 45 30 51 5 15 110 158
188 257 94 120 308 329 334 325 24 -3 45 -54 46 -110 1 -20 13 -79 27 -130 14
-51 30 -111 34 -133 5 -22 19 -65 30 -95 12 -30 25 -66 29 -80 11 -32 50 -116
115 -248 71 -144 78 -157 88 -160 4 -2 8 -8 8 -13 0 -13 93 -147 142 -204 24
-28 59 -70 78 -93 19 -24 85 -86 146 -138 75 -64 117 -108 127 -132 14 -32 42
-108 92 -242 26 -72 44 -117 78 -200 19 -47 43 -107 52 -135 10 -27 22 -54 27
-60 4 -5 8 -18 8 -30 0 -34 44 -125 61 -125 15 0 59 85 59 114 0 13 18 62 46
123 8 17 14 35 14 40 0 5 11 32 24 59 13 27 28 65 34 84 6 19 20 60 32 90 12
30 25 66 29 80 13 38 61 160 82 205 12 27 53 69 122 127 102 87 141 127 245
257 57 70 139 191 149 219 4 9 25 49 48 87 22 39 56 106 75 150 18 44 40 89
47 100 7 11 13 27 13 36 0 9 12 43 26 74 14 32 29 77 34 99 4 23 20 84 34 136
14 52 26 110 26 129 0 46 21 112 37 118 19 7 55 -19 146 -106 242 -231 460
-555 612 -911 55 -128 65 -166 50 -186 -11 -16 -15 -16 -58 4 -24 11 -58 24
-73 28 -31 8 -123 49 -264 116 -94 46 -239 131 -343 202 -80 54 -122 61 -137
20 -12 -31 -3 -99 19 -139 42 -79 153 -203 231 -259 122 -88 199 -135 290
-177 87 -41 285 -119 300 -119 9 0 20 -4 25 -9 6 -5 46 -19 90 -31 44 -12 89
-26 100 -31 18 -7 86 -24 234 -58 25 -5 48 -8 53 -5 12 8 10 48 -8 122 -8 37
-22 99 -31 137 -18 81 -39 163 -57 220 -40 125 -60 181 -67 189 -5 6 -9 17 -9
27 0 9 -13 43 -30 75 -16 32 -30 65 -30 72 0 23 -154 316 -206 392 -27 40 -56
83 -64 96 -31 48 -76 111 -117 162 -64 79 -57 91 45 68 258 -57 445 -76 730
-75 119 0 251 4 292 9 41 5 114 13 161 19 48 5 104 14 125 19 22 6 75 18 119
27 121 25 464 130 507 155 10 6 23 10 29 10 7 0 41 14 76 30 34 17 68 30 74
30 7 0 27 9 45 21 32 20 33 22 20 47 -18 33 -184 213 -245 265 -26 22 -53 47
-61 56 -8 10 -37 35 -65 57 -27 21 -54 44 -60 50 -10 11 -147 108 -183 129 -9
6 -44 28 -77 50 -188 122 -462 234 -715 292 -157 36 -422 37 -463 2 -19 -16
-20 -20 -7 -29 8 -5 30 -10 48 -10 50 0 221 -42 317 -77 164 -61 225 -87 340
-147 17 -8 37 -18 45 -21 8 -3 29 -14 45 -24 17 -11 48 -29 70 -41 22 -12 60
-36 85 -53 25 -17 65 -45 90 -62 77 -52 181 -138 274 -226 78 -74 88 -87 78
-104 -16 -32 -153 -70 -457 -130 -124 -24 -371 -45 -525 -45 -155 0 -402 21
-525 46 -159 31 -231 47 -268 60 -20 8 -45 14 -55 14 -10 0 -51 12 -92 26 -41
14 -88 29 -105 34 -16 4 -55 18 -85 30 -30 12 -66 25 -80 29 -14 5 -51 20 -81
35 -31 14 -61 26 -68 26 -22 0 -61 49 -61 77 0 48 -36 175 -67 241 -36 75 -98
128 -138 118 l-24 -6 -3 -190 -3 -189 -45 -46 c-66 -68 -225 -185 -305 -224
-147 -72 -211 -94 -385 -131 -158 -33 -457 -4 -625 61 -174 67 -312 151 -436
267 l-74 70 -2 183 c-3 212 -8 227 -66 196 -52 -29 -61 -39 -95 -105 -32 -61
-43 -97 -64 -217 -12 -64 -28 -91 -62 -101 -11 -3 -46 -17 -76 -31 -30 -14
-66 -29 -80 -34 -14 -4 -50 -17 -80 -29 -30 -12 -68 -26 -85 -30 -16 -5 -57
-18 -90 -30 -33 -12 -78 -25 -100 -30 -22 -4 -87 -20 -145 -33 -259 -63 -514
-90 -775 -83 -198 5 -420 26 -468 45 -16 6 -43 11 -60 11 -18 0 -75 12 -127
26 -52 15 -113 30 -135 34 -80 15 -120 35 -123 62 -5 37 151 182 350 326 33
24 72 51 88 60 134 82 178 107 247 141 91 46 165 78 263 116 25 9 56 22 70 27
42 17 247 68 300 75 59 7 80 13 80 23 0 37 -147 55 -336 40z m1831 -1208 c98
-49 246 -100 340 -118 180 -34 523 -36 660 -3 74 17 254 77 305 101 25 11 70
32 100 46 30 13 71 35 92 48 32 20 38 21 49 8 9 -12 7 -32 -11 -102 -37 -143
-90 -296 -108 -313 -9 -9 -60 -31 -112 -47 -176 -57 -268 -78 -410 -93 -52 -5
-126 -13 -164 -17 -160 -19 -471 29 -691 105 -38 14 -80 27 -92 30 -36 8 -58
44 -90 143 -58 180 -79 276 -64 294 12 14 19 12 70 -16 31 -17 88 -47 126 -66z
m362 -777 c200 -31 484 -29 663 3 160 30 154 29 158 9 5 -26 -174 -237 -248
-292 -17 -12 -56 -47 -88 -76 -56 -53 -152 -119 -172 -119 -64 0 -510 422
-510 482 0 21 11 30 29 22 9 -3 85 -17 168 -29z"/>
</g>
</svg>
